<?xml version="1.0" encoding="utf-8"?>
<!-- Generator: Adobe Illustrator 19.0.0, SVG Export Plug-In . SVG Version: 6.00 Build 0)  -->
<svg version="1.1" id="Layer_1" xmlns="http://www.w3.org/2000/svg" xmlns:xlink="http://www.w3.org/1999/xlink" x="0px" y="0px"
	 viewBox="0 0 96 96" style="enable-background:new 0 0 96 96;" xml:space="preserve">
<style type="text/css">
	.st0{fill:#333333;}
</style>
<g id="XMLID_1_">
	<path id="XMLID_3_" class="st0" d="M79,38.1L49.4,22c-0.9-0.5-1.9-0.5-2.8,0L17,38.1c-0.9,0.5-1.5,1.5-1.5,2.6v4.2c0,1.6,1.3,3,3,3
		h3v23.6c0,1.6,1.3,3,3,3h5.9V50.7h35.5v23.6h5.9c1.6,0,3-1.3,3-3V47.8h3c1.6,0,3-1.3,3-3v-4.2C80.5,39.6,79.9,38.6,79,38.1z"/>
	<rect id="XMLID_4_" x="36.2" y="56.7" class="st0" width="23.6" height="5.9"/>
	<rect id="XMLID_5_" x="36.2" y="68.5" class="st0" width="23.6" height="5.9"/>
</g>
</svg>
